<svg width="150" height="150" viewBox="0 0 150 150" fill="none" xmlns="http://www.w3.org/2000/svg">
<circle cx="75" cy="75" r="75" fill="black"/>
<path fill-rule="evenodd" clip-rule="evenodd" d="M111.359 40C113.573 40 115.786 40 118 40C118 45.1695 118 50.3385 118 55.508C102.023 56.5989 91.0292 64.5744 85.0181 79.4346C84.3665 81.3057 83.9238 83.2261 83.69 85.1947C83.4687 97.8958 83.3947 110.597 83.4687 123.3C78.1562 123.3 72.8437 123.3 67.5311 123.3C67.4572 110.597 67.5311 97.8958 67.7525 85.1947C70.7966 65.3166 81.4951 51.3594 99.8489 43.3231C103.662 41.9279 107.499 40.8202 111.359 40Z" fill="#FBFCFB"/>
<path fill-rule="evenodd" clip-rule="evenodd" d="M33 40C48.42 41.1799 57.9382 49.303 61.5547 64.3697C61.7752 65.8394 61.8491 67.3162 61.7761 68.8005C49.6485 68.3836 40.8683 62.771 35.4349 51.9633C33.8624 48.1324 33.0505 44.1446 33 40Z" fill="#1DBF73"/>
<path fill-rule="evenodd" clip-rule="evenodd" d="M115.344 76.776C116.229 76.776 117.115 76.776 118 76.776C118 77.2191 118 77.6622 118 78.1053C116.533 89.9871 110.04 97.5935 98.5208 100.924C96.765 101.291 94.9941 101.513 93.2083 101.589C93.9082 89.735 99.8108 81.6854 110.917 77.4407C112.358 76.9785 113.834 76.757 115.344 76.776Z" fill="#FAFBFA"/>
</svg>
