<svg width="193" height="189" viewBox="0 0 193 189" fill="none" xmlns="http://www.w3.org/2000/svg">
<path fill-rule="evenodd" clip-rule="evenodd" d="M177.5 0.5C182.5 0.5 187.5 0.5 192.5 0.5C192.5 12.167 192.5 23.833 192.5 35.5C156.412 37.962 131.578 55.962 118 89.5C116.528 93.723 115.528 98.057 115 102.5C114.5 131.165 114.333 159.831 114.5 188.5C102.5 188.5 90.4999 188.5 78.4999 188.5C78.3329 159.831 78.4999 131.165 78.9999 102.5C85.8759 57.637 110.042 26.137 151.5 8C160.114 4.851 168.781 2.351 177.5 0.5Z" fill="#FBFCFB"/>
<path fill-rule="evenodd" clip-rule="evenodd" d="M0.5 0.5C35.331 3.163 56.831 21.496 65 55.5C65.498 58.817 65.665 62.15 65.5 65.5C38.106 64.559 18.273 51.892 6 27.5C2.448 18.854 0.614 9.854 0.5 0.5Z" fill="#1DBF73"/>
<path fill-rule="evenodd" clip-rule="evenodd" d="M186.5 83.5001C188.5 83.5001 190.5 83.5001 192.5 83.5001C192.5 84.5001 192.5 85.5001 192.5 86.5001C189.187 113.316 174.521 130.483 148.5 138C144.534 138.828 140.534 139.328 136.5 139.5C138.081 112.747 151.414 94.5801 176.5 85.0001C179.757 83.9571 183.09 83.4571 186.5 83.5001Z" fill="#FAFBFA"/>
</svg>
